<?xml version="1.0" encoding="UTF-8"?> <svg xmlns="http://www.w3.org/2000/svg" width="122" height="36" viewBox="0 0 122 36" fill="none"><path d="M46.352 16.04C46.192 16.04 46.064 15.992 45.968 15.896C45.8827 15.8107 45.8133 15.736 45.76 15.672L45.184 14.904C44.7253 15.0747 44.2027 15.16 43.616 15.16C42.6453 15.16 41.808 15 41.104 14.68C40.4 14.36 39.8507 13.88 39.456 13.24C39.072 12.5893 38.8587 11.7733 38.816 10.792C38.8053 10.3333 38.8 9.88 38.8 9.432C38.8 8.97333 38.8053 8.50933 38.816 8.04C38.8587 7.08 39.0773 6.27467 39.472 5.624C39.8773 4.96267 40.432 4.46667 41.136 4.136C41.8507 3.80533 42.6773 3.64 43.616 3.64C44.5547 3.64 45.376 3.80533 46.08 4.136C46.7947 4.46667 47.3547 4.96267 47.76 5.624C48.1653 6.27467 48.384 7.08 48.416 8.04C48.4373 8.50933 48.448 8.97333 48.448 9.432C48.448 9.88 48.4373 10.3333 48.416 10.792C48.352 12.1573 47.9627 13.1973 47.248 13.912L48.4 15.544C48.4107 15.5547 48.4213 15.576 48.432 15.608C48.4427 15.64 48.448 15.672 48.448 15.704C48.4587 15.7893 48.432 15.864 48.368 15.928C48.304 16.0027 48.224 16.04 48.128 16.04H46.352ZM43.616 13.096C44.2453 13.096 44.7573 12.9093 45.152 12.536C45.5467 12.152 45.76 11.544 45.792 10.712C45.8133 10.2427 45.824 9.80533 45.824 9.4C45.824 8.984 45.8133 8.54667 45.792 8.088C45.7707 7.53333 45.664 7.08 45.472 6.728C45.2907 6.376 45.04 6.12 44.72 5.96C44.4 5.78933 44.032 5.704 43.616 5.704C43.2107 5.704 42.848 5.78933 42.528 5.96C42.208 6.12 41.952 6.376 41.76 6.728C41.568 7.08 41.4613 7.53333 41.44 8.088C41.4293 8.54667 41.424 8.984 41.424 9.4C41.424 9.80533 41.4293 10.2427 41.44 10.712C41.472 11.544 41.6853 12.152 42.08 12.536C42.4853 12.9093 42.9973 13.096 43.616 13.096ZM53.314 15.16C52.6953 15.16 52.146 15.0213 51.666 14.744C51.1967 14.456 50.8287 14.0453 50.562 13.512C50.306 12.968 50.178 12.312 50.178 11.544V7.08C50.178 6.96267 50.2153 6.86667 50.29 6.792C50.3647 6.71733 50.4553 6.68 50.562 6.68H52.258C52.3753 6.68 52.4713 6.71733 52.546 6.792C52.6207 6.86667 52.658 6.96267 52.658 7.08V11.448C52.658 12.6427 53.1807 13.24 54.226 13.24C54.7273 13.24 55.122 13.0853 55.41 12.776C55.7087 12.456 55.858 12.0133 55.858 11.448V7.08C55.858 6.96267 55.8953 6.86667 55.97 6.792C56.0447 6.71733 56.1407 6.68 56.258 6.68H57.954C58.0607 6.68 58.1513 6.71733 58.226 6.792C58.3007 6.86667 58.338 6.96267 58.338 7.08V14.6C58.338 14.7173 58.3007 14.8133 58.226 14.888C58.1513 14.9627 58.0607 15 57.954 15H56.386C56.2687 15 56.1727 14.9627 56.098 14.888C56.0233 14.8133 55.986 14.7173 55.986 14.6V13.976C55.7087 14.36 55.3513 14.6533 54.914 14.856C54.4767 15.0587 53.9433 15.16 53.314 15.16ZM64.1598 15.16C63.2744 15.16 62.5331 15.016 61.9358 14.728C61.3384 14.4293 60.8798 14.008 60.5598 13.464C60.2504 12.92 60.0798 12.2853 60.0478 11.56C60.0371 11.3467 60.0318 11.1067 60.0318 10.84C60.0318 10.5627 60.0371 10.3227 60.0478 10.12C60.0798 9.384 60.2611 8.74933 60.5918 8.216C60.9224 7.672 61.3864 7.256 61.9838 6.968C62.5811 6.66933 63.3064 6.52 64.1598 6.52C65.0024 6.52 65.7224 6.66933 66.3198 6.968C66.9171 7.256 67.3811 7.672 67.7118 8.216C68.0424 8.74933 68.2238 9.384 68.2558 10.12C68.2771 10.3227 68.2878 10.5627 68.2878 10.84C68.2878 11.1067 68.2771 11.3467 68.2558 11.56C68.2238 12.2853 68.0478 12.92 67.7278 13.464C67.4184 14.008 66.9651 14.4293 66.3678 14.728C65.7704 15.016 65.0344 15.16 64.1598 15.16ZM64.1598 13.4C64.6824 13.4 65.0771 13.24 65.3438 12.92C65.6104 12.5893 65.7544 12.1093 65.7758 11.48C65.7864 11.32 65.7918 11.1067 65.7918 10.84C65.7918 10.5733 65.7864 10.36 65.7758 10.2C65.7544 9.58133 65.6104 9.10667 65.3438 8.776C65.0771 8.44533 64.6824 8.28 64.1598 8.28C63.6371 8.28 63.2371 8.44533 62.9598 8.776C62.6931 9.10667 62.5491 9.58133 62.5278 10.2C62.5171 10.36 62.5118 10.5733 62.5118 10.84C62.5118 11.1067 62.5171 11.32 62.5278 11.48C62.5491 12.1093 62.6931 12.5893 62.9598 12.92C63.2371 13.24 63.6371 13.4 64.1598 13.4ZM73.9143 15C73.2529 15 72.6876 14.8933 72.2183 14.68C71.7489 14.456 71.3916 14.1147 71.1463 13.656C70.9116 13.1973 70.7943 12.6213 70.7943 11.928V8.568H69.5463C69.4289 8.568 69.3329 8.53067 69.2583 8.456C69.1836 8.38133 69.1463 8.28533 69.1463 8.168V7.08C69.1463 6.96267 69.1836 6.86667 69.2583 6.792C69.3329 6.71733 69.4289 6.68 69.5463 6.68H70.7943V4.04C70.7943 3.92267 70.8316 3.82667 70.9062 3.752C70.9916 3.67733 71.0876 3.64 71.1943 3.64H72.7623C72.8796 3.64 72.9756 3.67733 73.0503 3.752C73.1249 3.82667 73.1623 3.92267 73.1623 4.04V6.68H75.1623C75.2689 6.68 75.3596 6.71733 75.4343 6.792C75.5089 6.86667 75.5463 6.96267 75.5463 7.08V8.168C75.5463 8.28533 75.5089 8.38133 75.4343 8.456C75.3596 8.53067 75.2689 8.568 75.1623 8.568H73.1623V11.736C73.1623 12.1413 73.2316 12.4613 73.3703 12.696C73.5196 12.92 73.7756 13.032 74.1383 13.032H75.3063C75.4129 13.032 75.5036 13.0693 75.5783 13.144C75.6529 13.2187 75.6903 13.3093 75.6903 13.416V14.6C75.6903 14.7173 75.6529 14.8133 75.5783 14.888C75.5036 14.9627 75.4129 15 75.3063 15H73.9143ZM79.5341 15.16C78.9688 15.16 78.4621 15.0533 78.0141 14.84C77.5661 14.616 77.2088 14.3173 76.9421 13.944C76.6755 13.5707 76.5421 13.1547 76.5421 12.696C76.5421 11.9387 76.8461 11.3413 77.4541 10.904C78.0728 10.4667 78.8835 10.168 79.8861 10.008L81.9821 9.704V9.416C81.9821 9 81.8861 8.68 81.6941 8.456C81.5021 8.232 81.1661 8.12 80.6861 8.12C80.3341 8.12 80.0515 8.18933 79.8381 8.328C79.6248 8.46667 79.4595 8.648 79.3421 8.872C79.2568 9.01067 79.1341 9.08 78.9741 9.08H77.4541C77.3368 9.08 77.2461 9.048 77.1821 8.984C77.1181 8.90933 77.0915 8.824 77.1021 8.728C77.1021 8.54667 77.1715 8.33333 77.3101 8.088C77.4488 7.84267 77.6621 7.60267 77.9501 7.368C78.2381 7.12267 78.6061 6.92 79.0541 6.76C79.5021 6.6 80.0515 6.52 80.7021 6.52C81.3741 6.52 81.9501 6.6 82.4301 6.76C82.9101 6.92 83.2941 7.144 83.5821 7.432C83.8701 7.72 84.0835 8.056 84.2221 8.44C84.3608 8.81333 84.4301 9.21867 84.4301 9.656V14.6C84.4301 14.7173 84.3928 14.8133 84.3181 14.888C84.2435 14.9627 84.1475 15 84.0301 15H82.4621C82.3555 15 82.2648 14.9627 82.1901 14.888C82.1155 14.8133 82.0781 14.7173 82.0781 14.6V14.008C81.9395 14.2107 81.7528 14.4027 81.5181 14.584C81.2835 14.7547 81.0008 14.8933 80.6701 15C80.3501 15.1067 79.9715 15.16 79.5341 15.16ZM80.1741 13.496C80.5261 13.496 80.8408 13.4213 81.1181 13.272C81.3955 13.1227 81.6141 12.8933 81.7741 12.584C81.9341 12.2747 82.0141 11.8853 82.0141 11.416V11.144L80.5261 11.384C79.9501 11.48 79.5288 11.624 79.2621 11.816C78.9955 12.008 78.8621 12.2427 78.8621 12.52C78.8621 12.7227 78.9208 12.8987 79.0381 13.048C79.1661 13.1973 79.3315 13.3093 79.5341 13.384C79.7368 13.4587 79.9501 13.496 80.1741 13.496ZM90.3049 15C89.6435 15 89.0782 14.8933 88.6089 14.68C88.1395 14.456 87.7822 14.1147 87.5369 13.656C87.3022 13.1973 87.1849 12.6213 87.1849 11.928V8.568H85.9369C85.8195 8.568 85.7235 8.53067 85.6489 8.456C85.5742 8.38133 85.5369 8.28533 85.5369 8.168V7.08C85.5369 6.96267 85.5742 6.86667 85.6489 6.792C85.7235 6.71733 85.8195 6.68 85.9369 6.68H87.1849V4.04C87.1849 3.92267 87.2222 3.82667 87.2969 3.752C87.3822 3.67733 87.4782 3.64 87.5849 3.64H89.1529C89.2702 3.64 89.3662 3.67733 89.4409 3.752C89.5155 3.82667 89.5529 3.92267 89.5529 4.04V6.68H91.5529C91.6595 6.68 91.7502 6.71733 91.8249 6.792C91.8995 6.86667 91.9369 6.96267 91.9369 7.08V8.168C91.9369 8.28533 91.8995 8.38133 91.8249 8.456C91.7502 8.53067 91.6595 8.568 91.5529 8.568H89.5529V11.736C89.5529 12.1413 89.6222 12.4613 89.7609 12.696C89.9102 12.92 90.1662 13.032 90.5289 13.032H91.6969C91.8035 13.032 91.8942 13.0693 91.9689 13.144C92.0435 13.2187 92.0809 13.3093 92.0809 13.416V14.6C92.0809 14.7173 92.0435 14.8133 91.9689 14.888C91.8942 14.9627 91.8035 15 91.6969 15H90.3049ZM93.8608 15C93.7541 15 93.6634 14.9627 93.5888 14.888C93.5141 14.8133 93.4768 14.7173 93.4768 14.6V7.08C93.4768 6.96267 93.5141 6.86667 93.5888 6.792C93.6634 6.71733 93.7541 6.68 93.8608 6.68H95.4608C95.5781 6.68 95.6741 6.71733 95.7488 6.792C95.8234 6.86667 95.8608 6.96267 95.8608 7.08V14.6C95.8608 14.7173 95.8234 14.8133 95.7488 14.888C95.6741 14.9627 95.5781 15 95.4608 15H93.8608ZM93.8128 5.4C93.7061 5.4 93.6154 5.36267 93.5408 5.288C93.4661 5.21333 93.4288 5.11733 93.4288 5V3.72C93.4288 3.60267 93.4661 3.50667 93.5408 3.432C93.6154 3.34667 93.7061 3.304 93.8128 3.304H95.4928C95.6101 3.304 95.7061 3.34667 95.7808 3.432C95.8661 3.50667 95.9088 3.60267 95.9088 3.72V5C95.9088 5.11733 95.8661 5.21333 95.7808 5.288C95.7061 5.36267 95.6101 5.4 95.4928 5.4H93.8128ZM101.738 15.16C100.853 15.16 100.111 15.016 99.5139 14.728C98.9165 14.4293 98.4579 14.008 98.1379 13.464C97.8285 12.92 97.6579 12.2853 97.6259 11.56C97.6152 11.3467 97.6099 11.1067 97.6099 10.84C97.6099 10.5627 97.6152 10.3227 97.6259 10.12C97.6579 9.384 97.8392 8.74933 98.1699 8.216C98.5005 7.672 98.9645 7.256 99.5619 6.968C100.159 6.66933 100.885 6.52 101.738 6.52C102.581 6.52 103.301 6.66933 103.898 6.968C104.495 7.256 104.959 7.672 105.29 8.216C105.621 8.74933 105.802 9.384 105.834 10.12C105.855 10.3227 105.866 10.5627 105.866 10.84C105.866 11.1067 105.855 11.3467 105.834 11.56C105.802 12.2853 105.626 12.92 105.306 13.464C104.997 14.008 104.543 14.4293 103.946 14.728C103.349 15.016 102.613 15.16 101.738 15.16ZM101.738 13.4C102.261 13.4 102.655 13.24 102.922 12.92C103.189 12.5893 103.333 12.1093 103.354 11.48C103.365 11.32 103.37 11.1067 103.37 10.84C103.37 10.5733 103.365 10.36 103.354 10.2C103.333 9.58133 103.189 9.10667 102.922 8.776C102.655 8.44533 102.261 8.28 101.738 8.28C101.215 8.28 100.815 8.44533 100.538 8.776C100.271 9.10667 100.127 9.58133 100.106 10.2C100.095 10.36 100.09 10.5733 100.09 10.84C100.09 11.1067 100.095 11.32 100.106 11.48C100.127 12.1093 100.271 12.5893 100.538 12.92C100.815 13.24 101.215 13.4 101.738 13.4ZM107.923 15C107.817 15 107.726 14.9627 107.651 14.888C107.577 14.8133 107.539 14.7173 107.539 14.6V7.08C107.539 6.96267 107.577 6.86667 107.651 6.792C107.726 6.71733 107.817 6.68 107.923 6.68H109.491C109.609 6.68 109.705 6.71733 109.779 6.792C109.854 6.86667 109.891 6.96267 109.891 7.08V7.704C110.169 7.36267 110.526 7.08 110.963 6.856C111.401 6.632 111.934 6.52 112.563 6.52C113.193 6.52 113.742 6.664 114.211 6.952C114.691 7.22933 115.065 7.64 115.331 8.184C115.609 8.71733 115.747 9.368 115.747 10.136V14.6C115.747 14.7173 115.705 14.8133 115.619 14.888C115.545 14.9627 115.454 15 115.347 15H113.651C113.534 15 113.438 14.9627 113.363 14.888C113.289 14.8133 113.251 14.7173 113.251 14.6V10.232C113.251 9.66667 113.113 9.22933 112.835 8.92C112.569 8.6 112.174 8.44 111.651 8.44C111.15 8.44 110.75 8.6 110.451 8.92C110.153 9.22933 110.003 9.66667 110.003 10.232V14.6C110.003 14.7173 109.966 14.8133 109.891 14.888C109.817 14.9627 109.726 15 109.619 15H107.923ZM42.864 34.16C42 34.16 41.264 34.0213 40.656 33.744C40.0587 33.4667 39.6 33.1093 39.28 32.672C38.96 32.2347 38.7893 31.7707 38.768 31.28C38.768 31.1947 38.8 31.12 38.864 31.056C38.928 30.992 39.008 30.96 39.104 30.96H39.424C39.5307 30.96 39.6107 30.992 39.664 31.056C39.728 31.12 39.7653 31.1947 39.776 31.28C39.8187 31.5787 39.952 31.8773 40.176 32.176C40.4 32.464 40.7307 32.7093 41.168 32.912C41.6053 33.104 42.1707 33.2 42.864 33.2C43.9093 33.2 44.672 33.0133 45.152 32.64C45.632 32.256 45.872 31.744 45.872 31.104C45.872 30.6773 45.744 30.336 45.488 30.08C45.2427 29.8133 44.864 29.5787 44.352 29.376C43.84 29.1627 43.184 28.928 42.384 28.672C41.6267 28.4267 41.0027 28.176 40.512 27.92C40.0213 27.6533 39.6587 27.3333 39.424 26.96C39.2 26.5867 39.088 26.1067 39.088 25.52C39.088 24.976 39.232 24.4907 39.52 24.064C39.808 23.6267 40.224 23.28 40.768 23.024C41.3227 22.768 41.9947 22.64 42.784 22.64C43.4133 22.64 43.9627 22.7253 44.432 22.896C44.9013 23.0667 45.2907 23.296 45.6 23.584C45.9093 23.8613 46.144 24.1653 46.304 24.496C46.464 24.816 46.5493 25.1307 46.56 25.44C46.56 25.5147 46.5333 25.5893 46.48 25.664C46.4267 25.728 46.3413 25.76 46.224 25.76H45.904C45.8507 25.76 45.7813 25.7387 45.696 25.696C45.6213 25.6533 45.5733 25.568 45.552 25.44C45.488 24.9067 45.2053 24.4693 44.704 24.128C44.2133 23.776 43.5733 23.6 42.784 23.6C41.9947 23.6 41.3493 23.7547 40.848 24.064C40.3467 24.3733 40.096 24.8587 40.096 25.52C40.096 25.9467 40.208 26.2987 40.432 26.576C40.656 26.8427 41.008 27.0827 41.488 27.296C41.968 27.4987 42.5867 27.7227 43.344 27.968C44.144 28.224 44.8053 28.48 45.328 28.736C45.8507 28.992 46.24 29.3067 46.496 29.68C46.752 30.0427 46.88 30.5173 46.88 31.104C46.88 31.7547 46.7147 32.3093 46.384 32.768C46.064 33.216 45.6053 33.5627 45.008 33.808C44.4107 34.0427 43.696 34.16 42.864 34.16ZM51.7835 34C51.2288 34 50.7915 33.8827 50.4715 33.648C50.1515 33.4133 49.9275 33.0933 49.7995 32.688C49.6715 32.2827 49.6075 31.8293 49.6075 31.328V26.608H48.3595C48.2528 26.608 48.1675 26.576 48.1035 26.512C48.0395 26.448 48.0075 26.3627 48.0075 26.256V26.032C48.0075 25.9253 48.0395 25.84 48.1035 25.776C48.1675 25.712 48.2528 25.68 48.3595 25.68H49.6075V22.992C49.6075 22.8853 49.6395 22.8 49.7035 22.736C49.7675 22.672 49.8528 22.64 49.9595 22.64H50.2315C50.3382 22.64 50.4235 22.672 50.4875 22.736C50.5515 22.8 50.5835 22.8853 50.5835 22.992V25.68H52.5675C52.6742 25.68 52.7595 25.712 52.8235 25.776C52.8875 25.84 52.9195 25.9253 52.9195 26.032V26.256C52.9195 26.3627 52.8875 26.448 52.8235 26.512C52.7595 26.576 52.6742 26.608 52.5675 26.608H50.5835V31.264C50.5835 31.8293 50.6742 32.272 50.8555 32.592C51.0475 32.912 51.3835 33.072 51.8635 33.072H52.7275C52.8342 33.072 52.9195 33.104 52.9835 33.168C53.0475 33.232 53.0795 33.3173 53.0795 33.424V33.648C53.0795 33.7547 53.0475 33.84 52.9835 33.904C52.9195 33.968 52.8342 34 52.7275 34H51.7835ZM57.8535 34.16C57.1282 34.16 56.5255 34.0053 56.0455 33.696C55.5762 33.376 55.2242 32.944 54.9895 32.4C54.7655 31.856 54.6535 31.248 54.6535 30.576V26.032C54.6535 25.9253 54.6855 25.84 54.7495 25.776C54.8135 25.712 54.8988 25.68 55.0055 25.68H55.2775C55.3842 25.68 55.4695 25.712 55.5335 25.776C55.5975 25.84 55.6295 25.9253 55.6295 26.032V30.496C55.6295 32.32 56.4242 33.232 58.0135 33.232C58.7708 33.232 59.3788 32.992 59.8375 32.512C60.2962 32.0213 60.5255 31.3493 60.5255 30.496V26.032C60.5255 25.9253 60.5575 25.84 60.6215 25.776C60.6855 25.712 60.7708 25.68 60.8775 25.68H61.1495C61.2562 25.68 61.3415 25.712 61.4055 25.776C61.4695 25.84 61.5015 25.9253 61.5015 26.032V33.648C61.5015 33.7547 61.4695 33.84 61.4055 33.904C61.3415 33.968 61.2562 34 61.1495 34H60.8775C60.7708 34 60.6855 33.968 60.6215 33.904C60.5575 33.84 60.5255 33.7547 60.5255 33.648V32.896C60.2375 33.2693 59.8908 33.5733 59.4855 33.808C59.0908 34.0427 58.5468 34.16 57.8535 34.16ZM67.1009 34.16C66.4822 34.16 65.9542 34.048 65.5169 33.824C65.0902 33.6 64.7435 33.3013 64.4769 32.928C64.2102 32.5547 64.0129 32.1387 63.8849 31.68C63.7675 31.2213 63.6982 30.7573 63.6769 30.288C63.6662 30.128 63.6609 29.9787 63.6609 29.84C63.6609 29.7013 63.6662 29.552 63.6769 29.392C63.6982 28.9227 63.7675 28.4587 63.8849 28C64.0129 27.5413 64.2102 27.1253 64.4769 26.752C64.7435 26.3787 65.0902 26.08 65.5169 25.856C65.9542 25.632 66.4822 25.52 67.1009 25.52C67.7622 25.52 68.3062 25.6427 68.7329 25.888C69.1702 26.1333 69.5222 26.432 69.7889 26.784V22.992C69.7889 22.8853 69.8209 22.8 69.8849 22.736C69.9489 22.672 70.0342 22.64 70.1409 22.64H70.4129C70.5195 22.64 70.6049 22.672 70.6689 22.736C70.7329 22.8 70.7649 22.8853 70.7649 22.992V33.648C70.7649 33.7547 70.7329 33.84 70.6689 33.904C70.6049 33.968 70.5195 34 70.4129 34H70.1409C70.0342 34 69.9489 33.968 69.8849 33.904C69.8209 33.84 69.7889 33.7547 69.7889 33.648V32.896C69.5222 33.2587 69.1702 33.5627 68.7329 33.808C68.3062 34.0427 67.7622 34.16 67.1009 34.16ZM67.1969 33.232C67.8049 33.232 68.2955 33.088 68.6689 32.8C69.0422 32.512 69.3195 32.1547 69.5009 31.728C69.6822 31.2907 69.7782 30.8533 69.7889 30.416C69.7995 30.256 69.8049 30.048 69.8049 29.792C69.8049 29.536 69.7995 29.328 69.7889 29.168C69.7782 28.7413 69.6769 28.32 69.4849 27.904C69.3035 27.488 69.0262 27.1413 68.6529 26.864C68.2795 26.5867 67.7942 26.448 67.1969 26.448C66.5782 26.448 66.0822 26.5867 65.7089 26.864C65.3462 27.1413 65.0849 27.504 64.9249 27.952C64.7649 28.4 64.6742 28.88 64.6529 29.392C64.6422 29.6907 64.6422 29.9893 64.6529 30.288C64.6742 30.8 64.7649 31.28 64.9249 31.728C65.0849 32.176 65.3462 32.5387 65.7089 32.816C66.0822 33.0933 66.5782 33.232 67.1969 33.232ZM73.7261 34C73.6195 34 73.5341 33.968 73.4701 33.904C73.4061 33.84 73.3741 33.7547 73.3741 33.648V26.032C73.3741 25.9253 73.4061 25.84 73.4701 25.776C73.5341 25.712 73.6195 25.68 73.7261 25.68H73.9981C74.1048 25.68 74.1901 25.712 74.2541 25.776C74.3181 25.84 74.3501 25.9253 74.3501 26.032V33.648C74.3501 33.7547 74.3181 33.84 74.2541 33.904C74.1901 33.968 74.1048 34 73.9981 34H73.7261ZM73.5501 23.968C73.4435 23.968 73.3581 23.936 73.2941 23.872C73.2301 23.808 73.1981 23.7227 73.1981 23.616V23.008C73.1981 22.9013 73.2301 22.816 73.2941 22.752C73.3581 22.6773 73.4435 22.64 73.5501 22.64H74.1581C74.2648 22.64 74.3501 22.6773 74.4141 22.752C74.4888 22.816 74.5261 22.9013 74.5261 23.008V23.616C74.5261 23.7227 74.4888 23.808 74.4141 23.872C74.3501 23.936 74.2648 23.968 74.1581 23.968H73.5501ZM80.1046 34.16C79.3366 34.16 78.6913 34 78.1686 33.68C77.6566 33.36 77.262 32.9227 76.9846 32.368C76.718 31.8133 76.574 31.1947 76.5526 30.512C76.542 30.352 76.5366 30.128 76.5366 29.84C76.5366 29.552 76.542 29.328 76.5526 29.168C76.574 28.4747 76.718 27.856 76.9846 27.312C77.262 26.7573 77.6566 26.32 78.1686 26C78.6913 25.68 79.3366 25.52 80.1046 25.52C80.8726 25.52 81.5126 25.68 82.0246 26C82.5473 26.32 82.942 26.7573 83.2086 27.312C83.486 27.856 83.6353 28.4747 83.6566 29.168C83.6673 29.328 83.6726 29.552 83.6726 29.84C83.6726 30.128 83.6673 30.352 83.6566 30.512C83.6353 31.1947 83.486 31.8133 83.2086 32.368C82.942 32.9227 82.5473 33.36 82.0246 33.68C81.5126 34 80.8726 34.16 80.1046 34.16ZM80.1046 33.232C80.8513 33.232 81.4593 32.992 81.9286 32.512C82.398 32.032 82.6486 31.3387 82.6806 30.432C82.6913 30.272 82.6966 30.0747 82.6966 29.84C82.6966 29.6053 82.6913 29.408 82.6806 29.248C82.6486 28.3307 82.398 27.6373 81.9286 27.168C81.4593 26.688 80.8513 26.448 80.1046 26.448C79.358 26.448 78.75 26.688 78.2806 27.168C77.8113 27.6373 77.5606 28.3307 77.5286 29.248C77.518 29.408 77.5126 29.6053 77.5126 29.84C77.5126 30.0747 77.518 30.272 77.5286 30.432C77.5606 31.3387 77.8113 32.032 78.2806 32.512C78.75 32.992 79.358 33.232 80.1046 33.232Z" fill="black"></path><path d="M14.6287 0C10.8889 0.0532583 7.30721 1.51667 4.60014 4.09743C1.89306 6.6782 0.260299 10.186 0.0285385 13.9189C-0.203222 17.6519 0.983112 21.3347 3.35018 24.2305C5.71724 27.1263 9.09046 29.0215 12.7949 29.5369L18.9747 35.2079C19.1697 35.3878 19.425 35.488 19.6902 35.4888C19.8364 35.4901 19.9811 35.4593 20.1142 35.3987C20.303 35.3163 20.4637 35.1807 20.5766 35.0084C20.6896 34.8362 20.7499 34.6348 20.7502 34.4288V28.3285C23.8225 26.9192 26.3217 24.5034 27.8342 21.4806C29.3468 18.4578 29.7821 15.0093 29.0682 11.7054C28.3542 8.40159 26.5338 5.44047 23.9081 3.31192C21.2824 1.18338 18.0088 0.0149754 14.6287 0V0ZM19.3033 26.6378C19.1061 26.7163 18.937 26.8523 18.8179 27.0281C18.6988 27.2038 18.6353 27.4113 18.6355 27.6236V32.0173L13.9768 27.7455C13.8089 27.5868 13.5922 27.4897 13.362 27.4699C10.1603 27.0914 7.22177 25.5112 5.14062 23.0488C3.05948 20.5865 1.99099 17.4258 2.15122 14.2057C2.31145 10.9857 3.68843 7.94664 6.00374 5.70307C8.31905 3.4595 11.3999 2.17883 14.6234 2.12V2.12C17.5698 2.13849 20.4185 3.1793 22.6828 5.06469C24.9471 6.95008 26.4867 9.56309 27.0385 12.4574C27.5904 15.3518 27.1203 18.348 25.7085 20.9343C24.2968 23.5205 22.0309 25.5365 19.298 26.6378H19.3033Z" fill="black"></path><path d="M22.4144 14.575H6.82181C6.54068 14.575 6.27106 14.6867 6.07228 14.8855C5.87349 15.0843 5.76181 15.3539 5.76181 15.635C5.76181 16.798 5.99089 17.9497 6.43596 19.0242C6.88103 20.0987 7.53338 21.075 8.35576 21.8974C9.17814 22.7197 10.1545 23.3721 11.229 23.8172C12.3034 24.2622 13.4551 24.4913 14.6181 24.4913C15.7811 24.4913 16.9328 24.2622 18.0073 23.8172C19.0818 23.3721 20.0581 22.7197 20.8805 21.8974C21.7028 21.075 22.3552 20.0987 22.8003 19.0242C23.2453 17.9497 23.4744 16.798 23.4744 15.635C23.4744 15.3539 23.3627 15.0843 23.1639 14.8855C22.9652 14.6867 22.6955 14.575 22.4144 14.575Z" fill="black"></path></svg> 